<?xml version="1.0" standalone="no"?>
<!DOCTYPE svg PUBLIC "-//W3C//DTD SVG 20010904//EN"
 "http://www.w3.org/TR/2001/REC-SVG-20010904/DTD/svg10.dtd">
<svg version="1.0" xmlns="http://www.w3.org/2000/svg"
 width="150.000000pt" height="150.000000pt" viewBox="0 0 150.000000 150.000000"
 preserveAspectRatio="xMidYMid meet">
<metadata>
Created by potrace 1.16, written by Peter Selinger 2001-2019
</metadata>
<g transform="translate(0.000000,150.000000) scale(0.100000,-0.100000)"
fill="#000000" stroke="none">
<path d="M230 1146 c-32 -12 -35 -17 -32 -47 6 -76 49 -229 64 -229 6 0 5 7
-3 17 -13 15 -12 15 6 6 54 -29 137 9 150 68 7 33 -17 85 -43 93 -13 4 -19 16
-19 36 0 61 -48 83 -123 56z"/>
<path d="M720 720 c0 -5 -13 -10 -30 -10 -36 0 -51 -24 -52 -82 0 -29 6 -46
22 -62 l22 -21 -18 30 -18 30 30 -27 c37 -35 68 -35 99 -3 35 34 35 96 0 130
-24 25 -55 33 -55 15z"/>
</g>
</svg>
